<svg width="30" height="32" viewBox="0 0 30 32" fill="none" xmlns="http://www.w3.org/2000/svg">
<path d="M30 16.0001C30 23.7788 24.384 30.2095 17.0889 31.2534C16.4066 31.351 15.7087 31.4015 15.0004 31.4015C14.1825 31.4015 13.3801 31.3341 12.5975 31.2046C5.45447 30.0242 0 23.6662 0 16.0001C0 7.49407 6.71552 0.598633 14.9996 0.598633C23.2836 0.598633 29.9991 7.49407 29.9991 16.0001H30Z" fill="#1877F7"/>
<path d="M17.0889 12.9643V16.3194H21.1312L20.4911 20.8398H17.0889V31.2534C16.4066 31.351 15.7087 31.4015 15.0004 31.4015C14.1824 31.4015 13.38 31.3341 12.5975 31.2046V20.8398H8.86963V16.3194H12.5975V12.2149C12.5975 9.66782 14.6083 7.60229 17.0898 7.60229V7.60496C17.0967 7.60496 17.1036 7.60229 17.1105 7.60229H21.132V11.5107H18.5046C17.7229 11.5107 17.0898 12.1608 17.0898 12.9634L17.0889 12.9643Z" fill="white"/>
</svg>
