<svg width="60" height="61" viewBox="0 0 60 61" fill="none" xmlns="http://www.w3.org/2000/svg">
<circle cx="30" cy="30.0857" r="30" fill="#FF3B30"/>
<circle cx="29.9999" cy="30.0857" r="28.4091" fill="#FF3B30" stroke="#FFFCFC"/>
<path fill-rule="evenodd" clip-rule="evenodd" d="M17.8829 20.5865C19.274 19.1958 21.1605 18.4145 23.1275 18.4145C25.0946 18.4145 26.9811 19.1958 28.3722 20.5865L30.5457 22.7582L32.7192 20.5865C33.4035 19.878 34.2221 19.3128 35.1271 18.9241C36.0322 18.5353 37.0056 18.3306 37.9906 18.3221C38.9756 18.3135 39.9524 18.5012 40.8641 18.8742C41.7757 19.2472 42.604 19.798 43.3005 20.4945C43.997 21.1911 44.5478 22.0193 44.9208 22.931C45.2938 23.8426 45.4815 24.8195 45.4729 25.8044C45.4644 26.7894 45.2597 27.7628 44.871 28.6679C44.4822 29.5729 43.9171 30.3915 43.2085 31.0758L30.5457 43.7405L17.8829 31.0758C16.4922 29.6847 15.7109 27.7982 15.7109 25.8311C15.7109 23.8641 16.4922 21.9776 17.8829 20.5865V20.5865Z" stroke="#FFFEFE" stroke-width="2" stroke-linejoin="round"/>
</svg>
