<svg width="30" height="32" viewBox="0 0 30 32" fill="none" xmlns="http://www.w3.org/2000/svg">
<path d="M30 16.0004C30 23.7794 24.3839 30.2103 17.0886 31.2542C16.4062 31.3517 15.7083 31.4023 15 31.4023C14.182 31.4023 13.3796 31.3349 12.597 31.2054C5.45548 30.0249 0 23.6659 0 15.9995C0 7.49329 6.7157 0.597656 15 0.597656C23.2843 0.597656 30 7.49329 30 15.9995V16.0004Z" fill="#D9D9D9"/>
<path d="M9 16.8857C8.6 16.8857 8.256 16.7497 7.968 16.4777C7.696 16.1897 7.56 15.8297 7.56 15.3977C7.56 14.9497 7.696 14.5817 7.968 14.2937C8.256 14.0057 8.6 13.8617 9 13.8617C9.384 13.8617 9.712 14.0057 9.984 14.2937C10.272 14.5817 10.416 14.9497 10.416 15.3977C10.416 15.8297 10.272 16.1897 9.984 16.4777C9.712 16.7497 9.384 16.8857 9 16.8857ZM14.9766 16.8857C14.5766 16.8857 14.2326 16.7497 13.9446 16.4777C13.6726 16.1897 13.5366 15.8297 13.5366 15.3977C13.5366 14.9497 13.6726 14.5817 13.9446 14.2937C14.2326 14.0057 14.5766 13.8617 14.9766 13.8617C15.3606 13.8617 15.6886 14.0057 15.9606 14.2937C16.2486 14.5817 16.3926 14.9497 16.3926 15.3977C16.3926 15.8297 16.2486 16.1897 15.9606 16.4777C15.6886 16.7497 15.3606 16.8857 14.9766 16.8857ZM20.9531 16.8857C20.5531 16.8857 20.2091 16.7497 19.9211 16.4777C19.6491 16.1897 19.5131 15.8297 19.5131 15.3977C19.5131 14.9497 19.6491 14.5817 19.9211 14.2937C20.2091 14.0057 20.5531 13.8617 20.9531 13.8617C21.3371 13.8617 21.6651 14.0057 21.9371 14.2937C22.2251 14.5817 22.3691 14.9497 22.3691 15.3977C22.3691 15.8297 22.2251 16.1897 21.9371 16.4777C21.6651 16.7497 21.3371 16.8857 20.9531 16.8857Z" fill="#999999"/>
</svg>
