<svg width="60" height="52" viewBox="0 0 60 52" fill="none" xmlns="http://www.w3.org/2000/svg">
<path d="M4.11523 37.3715L5.82952 32.2286L29.8295 41.1429L54.5152 32.2286L56.2295 37.3715L29.8295 44.2286L4.11523 37.3715Z" fill="#FA0000"/>
<path d="M0 42.5143V40.4572L2.4 39.0858L30.1714 46.2858L56.2286 39.0858H58.9714L60 40.4572V42.5143L58.9714 44.2286L30.1714 51.0858L2.4 44.2286L0 42.5143Z" fill="#FA0000"/>
<path d="M45.2566 23.6571L31.5424 0V17.4857L33.2566 18.8571V20.9143V22.2857L31.5424 23.6571H29.8281H28.1138L27.0852 20.9143V18.8571L28.4566 17.4857V0L14.0566 23.6571V26.7429L17.8281 34.2857L28.4566 38.7429H31.5424L41.8281 34.2857L45.2566 26.7429V23.6571Z" fill="#FA0000"/>
</svg>
