<svg width="30" height="32" viewBox="0 0 30 32" fill="none" xmlns="http://www.w3.org/2000/svg">
<path d="M30 16.0004C30 23.7794 24.3839 30.2103 17.0886 31.2542C16.4062 31.3518 15.7083 31.4023 15 31.4023C14.182 31.4023 13.3796 31.3349 12.597 31.2054C5.45549 30.025 0 23.6659 0 15.9995C0 7.49329 6.71571 0.597656 15 0.597656C23.2843 0.597656 30 7.49329 30 15.9995V16.0004Z" fill="#FF0000"/>
<path fill-rule="evenodd" clip-rule="evenodd" d="M13.6133 20.0634C13.5952 20.1281 13.5779 20.1822 13.5641 20.2363C12.7608 23.4673 12.6718 24.1848 11.8461 25.6854C11.4522 26.3985 11.0091 27.0743 10.5185 27.7208C10.4632 27.7936 10.4114 27.8885 10.3008 27.8654C10.1799 27.8388 10.1704 27.727 10.1574 27.6277C10.0253 26.6459 9.95271 25.6615 9.98381 24.6699C10.0253 23.3786 10.1807 22.9351 11.802 15.9357C11.8253 15.8293 11.7994 15.7406 11.764 15.6439C11.3762 14.569 11.2993 13.4781 11.6379 12.3731C12.3721 9.98553 15.0074 9.80282 15.4687 11.7726C15.7528 12.9912 15.0014 14.585 14.4244 16.9424C13.9467 18.8873 16.1761 20.2691 18.0815 18.8501C19.8384 17.5419 20.5208 14.4041 20.3912 12.1806C20.1355 7.74699 15.4013 6.78914 12.3972 8.21705C8.95335 9.8516 8.17078 14.2347 9.72555 16.2373C9.92248 16.4918 10.2939 16.6479 10.2291 16.906C10.1289 17.3069 10.0408 17.7113 9.93285 18.1104C9.85252 18.4075 9.39127 18.5148 9.09932 18.3933C8.52579 18.1556 8.04899 17.7805 7.66116 17.2874C6.34048 15.6085 5.96302 12.2879 7.70868 9.47644C9.64263 6.36166 13.2402 5.10226 16.525 5.48451C20.4482 5.94304 22.9281 8.69509 23.3919 11.817C23.6035 13.2396 23.4515 16.7472 21.5063 19.2252C19.2692 22.074 15.6431 22.2629 13.97 20.5139C13.8413 20.38 13.7377 20.223 13.6116 20.0625L13.6133 20.0634Z" fill="white"/>
</svg>
