<svg width="30" height="32" viewBox="0 0 30 32" fill="none" xmlns="http://www.w3.org/2000/svg">
<path d="M30 16.0004C30 23.7794 24.3839 30.2103 17.0886 31.2542C16.4062 31.3517 15.7083 31.4023 15 31.4023C14.182 31.4023 13.3796 31.3349 12.597 31.2054C5.45548 30.0249 0 23.6659 0 15.9995C0 7.49329 6.7157 0.597656 15 0.597656C23.2843 0.597656 30 7.49329 30 15.9995V16.0004Z" fill="black"/>
<path d="M20.0041 26.4481H16.6052C13.5449 26.4481 11.2637 24.8312 11.2637 20.9635V14.7694H8.48242V11.4151C11.5427 10.5992 12.8228 7.89503 12.9705 5.55273H16.1483V10.8715H19.8564V14.7694H16.1483V20.1635C16.1483 21.7803 16.9429 22.3391 18.2083 22.3391H20.0041V26.4489V26.4481Z" fill="white"/>
</svg>
