<svg width="30" height="32" viewBox="0 0 30 32" fill="none" xmlns="http://www.w3.org/2000/svg">
<path d="M30 16.0004C30 23.7794 24.3839 30.2103 17.0886 31.2542C16.4062 31.3517 15.7083 31.4023 15 31.4023C14.182 31.4023 13.3796 31.3349 12.597 31.2054C5.45548 30.0249 0 23.6659 0 15.9995C0 7.49329 6.7157 0.597656 15 0.597656C23.2843 0.597656 30 7.49329 30 15.9995V16.0004Z" fill="#2188F7"/>
<path d="M23.8657 10.3579C23.4494 10.7898 22.8724 11.0568 22.2332 11.0568C22.152 11.0568 22.0709 11.0524 21.9923 11.0435C22.6591 10.6329 23.1739 9.98985 23.4304 9.22269C23.4304 9.22269 23.4313 9.22269 23.4313 9.2218C23.4667 9.11892 23.4969 9.01515 23.5211 8.90784C22.9933 9.48698 22.2721 9.87899 21.4628 9.97211C21.3384 9.98719 21.2123 9.99429 21.0844 9.99429C21.0438 9.99429 21.005 9.9934 20.9661 9.99074C20.6923 9.6954 20.3658 9.45151 20.0039 9.27235C19.6005 9.07014 19.1496 8.95129 18.6737 8.93622C18.6348 8.93356 18.596 8.93267 18.5554 8.93267C18.152 8.93267 17.765 9.00628 17.4074 9.14198C17.3159 9.17657 17.2269 9.21382 17.1397 9.25728C16.0064 9.80272 15.2221 10.985 15.2221 12.3552C15.2221 12.6364 15.2558 12.9095 15.3171 13.1703C14.9699 13.1561 14.6261 13.1215 14.2893 13.0701C14.1813 13.0523 14.0733 13.0337 13.9662 13.0124C13.1068 12.8483 12.2871 12.5663 11.5252 12.1832C10.8437 11.8408 10.208 11.4186 9.63016 10.9273C9.14387 10.5158 8.69903 10.0564 8.3017 9.55439C8.28443 9.5331 8.26716 9.51093 8.25075 9.48964C8.22742 9.52601 8.20583 9.56237 8.18683 9.6005C7.9087 10.0998 7.75149 10.6772 7.75149 11.2927C7.75149 11.3113 7.75149 11.3317 7.75236 11.3504C7.75927 11.8115 7.85428 12.2506 8.02444 12.6497C8.097 12.827 8.1851 12.9947 8.28616 13.1534C8.58416 13.6244 8.99098 14.0164 9.47123 14.2878C9.49283 14.302 9.51529 14.3135 9.53774 14.3241C9.50319 14.3312 9.46777 14.3374 9.43236 14.341C9.33389 14.3543 9.23197 14.3614 9.13004 14.3614C8.6187 14.3614 8.14277 14.1973 7.75322 13.9179C7.75063 13.9472 7.75063 13.9773 7.75063 14.0075C7.75063 14.9849 8.14968 15.8664 8.78886 16.4882C9.28639 16.976 9.92989 17.3032 10.6451 17.399C10.3877 17.4957 10.1096 17.548 9.82019 17.548C9.50665 17.548 9.20606 17.4868 8.93139 17.3742C9.34081 18.7409 10.5613 19.7431 12.0159 19.7874C11.1271 20.7355 9.87893 21.3244 8.49778 21.3244C7.6392 21.3244 6.83246 21.0965 6.13281 20.6974C7.81455 22.1918 10.0076 23.0947 12.4063 23.0947C17.7072 23.0947 22.0035 18.6832 22.0035 13.2403C22.0035 12.9406 21.9905 12.6443 21.9646 12.3517C22.8413 11.996 23.5366 11.2696 23.8657 10.3588V10.3579Z" fill="white"/>
</svg>
